{"title":"Now.You.See.Me.2.2016.720p.BRRip.AC3.x264.MutzNutz","uid":15605521,"size":3110706469,"categoryP":"video","categoryS":"hd___movies","magnet":"?xt=urn:btih:07c1e877f0ef92a4e37cfe133714bf07ec0a82cb&amp;dn=Now.You.See.Me.2.2016.720p.BRRip.AC3.x264.MutzNutz&amp;tr=udp%3A%2F%2Ftracker.leechers-paradise.org%3A6969&amp;tr=udp%3A%2F%2Fzer0day.ch%3A1337&amp;tr=udp%3A%2F%2Fopen.demonii.com%3A1337&amp;tr=udp%3A%2F%2Ftracker.coppersurfer.tk%3A6969&amp;tr=udp%3A%2F%2Fexodus.desync.com%3A6969","seeders":9,"leechers":0,"uploader":"TGroup","files":2,"time":1471715986,"description":"Format: Matroska\r\n\r\nFormat version: Version 2\r\n\r\nFile size: 2.90 GiB\r\n\r\nDuration: 2h 9mn\r\n\r\nOverall bit rate: 3 203 Kbps\r\n\r\nEncoded date: UTC 2016-08-19 20:27:12\r\n\r\nWriting application: mkvmerge v8.5.2 ('Crosses') 32bit\r\n\r\nWriting library: libebml v1.3.3 + libmatroska v1.4.4\r\n\r\nDURATION: 02:09:02.112000000\r\n\r\nNUMBER_OF_FRAMES: 241941\r\n\r\nNUMBER_OF_BYTES: 433558272\r\n\r\n_STATISTICS_WRITING_APP: mkvmerge v8.5.2 ('Crosses') 32bit\r\n\r\n_STATISTICS_WRITING_DATE_UTC: 2016-08-19 20:27:12\r\n\r\n_STATISTICS_TAGS: BPS DURATION NUMBER_OF_FRAMES NUMBER_OF_BYTES \r\n\r\nFormat: AVC\r\n\r\nFormat/Info: Advanced Video Codec\r\n\r\nFormat profile:   \r\n\r\nFormat settings, CABAC: Yes\r\n\r\nFormat settings, ReFrames: 4 frames\r\n\r\nCodec ID: V_MPEG4/ISO/AVC\r\n\r\nDuration: 2h 9mn\r\n\r\nBit rate: 2 755 Kbps\r\n\r\nWidth: 1 280 pixels\r\n\r\nHeight: 720 pixels\r\n\r\nDisplay aspect ratio: 16:9\r\n\r\nFrame rate mode: Constant\r\n\r\nFrame rate: 24.000 fps\r\n\r\nColor space: YUV\r\n\r\nChroma subsampling: 4:2:0\r\n\r\nBit depth: 8 bits\r\n\r\nScan type: Progressive\r\n\r\nBits/(Pixel*Frame): 0.125\r\n\r\nStream size: 2.43 GiB (84%)\r\n\r\nWriting library: x264 core 148 r2638 7599210\r\n\r\nDefault: Yes\r\n\r\nForced: No \r\n\r\nFormat: AC-3\r\n\r\nFormat/Info: Audio Coding 3\r\n\r\nMode extension: CM (complete main)\r\n\r\nFormat settings, Endianness: Big\r\n\r\nCodec ID: A_AC3\r\n\r\nDuration: 2h 9mn\r\n\r\nBit rate mode: Constant\r\n\r\nBit rate: 448 Kbps\r\n\r\nChannel(s): 6 channels\r\n\r\nChannel positions: Front: L C R, Side: L R, LFE\r\n\r\nSampling rate: 48.0 KHz\r\n\r\nCompression mode: Lossy\r\n\r\nStream size: 415 MiB (14%)\r\n\r\nDefault: Yes\r\n\r\nForced: No","torrent":{"xt":"urn:btih:07c1e877f0ef92a4e37cfe133714bf07ec0a82cb","amp;dn":"Now.You.See.Me.2.2016.720p.BRRip.AC3.x264.MutzNutz","amp;tr":["udp%3A%2F%2Ftracker.leechers-paradise.org%3A6969","udp%3A%2F%2Fzer0day.ch%3A1337","udp%3A%2F%2Fopen.demonii.com%3A1337","udp%3A%2F%2Ftracker.coppersurfer.tk%3A6969","udp%3A%2F%2Fexodus.desync.com%3A6969"],"infoHash":"07c1e877f0ef92a4e37cfe133714bf07ec0a82cb","infoHashBuffer":{"type":"Buffer","data":[7,193,232,119,240,239,146,164,227,124,254,19,55,20,191,7,236,10,130,203]},"announce":[],"urlList":[]}}